# xmcd
#
# Track frame offsets:
#	183
#	19695
#	34895
#	53658
#	74505
#	97455
#	125198
#	136565
#	161875
#	183440
#	200578
#
# Disc length: 2924 seconds
#
# Revision: 0
# Processed by: cddbd v1.5.1PL2 Copyright (c) Steve Scherf et al.
# Submitted via: dBpowerAMP V4.0
#
DISCID=a50b6a0b
DTITLE=Def Dames - 2 - 4 - The Bass
DYEAR=1989
DGENRE=Rap/Hip Hop
TTITLE0=Set It Off!
TTITLE1=Guy's Best Friend
TTITLE2=976-Boom
TTITLE3=2 - 4 - The Bass
TTITLE4=Make It Mellow
TTITLE5=Which Posse Can Dance The Best
TTITLE6=Let's Get Busy
TTITLE7=You're The 1 - 4 - Me
TTITLE8=Work It!
TTITLE9=Kut'N'Up Suckas!
TTITLE10=Do Wanna Battle Tomkat?
EXTD=
EXTT0=
EXTT1=
EXTT2=
EXTT3=
EXTT4=
EXTT5=
EXTT6=
EXTT7=
EXTT8=
EXTT9=
EXTT10=
PLAYORDER=
